<svg xmlns="http://www.w3.org/2000/svg" width="400" height="400" viewBox="0 0 28 28"><svg id="bg" width="32" height="32" viewBox="0 0 24 24" fill="#ff68b4" x="-2" y="-2"><path d="M21 16V8a2 2 0 0 0-1-1.73l-7-4a2 2 0 0 0-2 0l-7 4A2 2 0 0 0 3 8v8a2 2 0 0 0 1 1.73l7 4a2 2 0 0 0 2 0l7-4A2 2 0 0 0 21 16z"/></svg><svg id="symbol" width="18" height="18" viewBox="0 0 24 24" fill="none" stroke="#ffffff" stroke-width="2.2" stroke-linecap="round" stroke-linejoin="round" class="lucide lucide-car" x="5" y="5"><path d="M12 5a3 3 0 1 1 3 3m-3-3a3 3 0 1 0-3 3m3-3v1M9 8a3 3 0 1 0 3 3M9 8h1m5 0a3 3 0 1 1-3 3m3-3h-1m-2 3v-1"/><circle cx="12" cy="8" r="2"/><path d="M12 10v12"/><path d="M12 22c4.2 0 7-1.667 7-5-4.2 0-7 1.667-7 5Z"/><path d="M12 22c-4.2 0-7-1.667-7-5 4.2 0 7 1.667 7 5Z"/></svg></svg>
